<svg width="1920" height="782" viewBox="0 0 1920 782" fill="none" xmlns="http://www.w3.org/2000/svg">
<path fill-rule="evenodd" clip-rule="evenodd" d="M0 234.872L46 260.667C91 286.462 183 339.41 274 377.424C366 416.795 457 442.59 549 416.795C640 391 731 312.257 823 247.09C914 181.924 1006 130.333 1097 209.076C1189 286.462 1280 495.538 1371 560.705C1463 625.872 1554 547.128 1646 430.372C1737 312.257 1829 156.128 1874 78.7431L1920 0V782H1874C1829 782 1737 782 1646 782C1554 782 1463 782 1371 782C1280 782 1189 782 1097 782C1006 782 914 782 823 782C731 782 640 782 549 782C457 782 366 782 274 782C183 782 91 782 46 782H0V234.872Z" fill="url(#paint0_linear_1_8)"/>
<defs>
<linearGradient id="paint0_linear_1_8" x1="960" y1="0" x2="522.036" y2="856.559" gradientUnits="userSpaceOnUse">
<stop stop-color="#B64EE7"/>
<stop offset="1" stop-color="#B64EE7" stop-opacity="0.71"/>
</linearGradient>
</defs>
</svg>
